<svg width="114" height="97" viewBox="0 0 114 97" fill="none" xmlns="http://www.w3.org/2000/svg">
    <g clip-path="url(#clip0_1_3)">
        <g clip-path="url(#clip1_1_3)">
            <path d="M37.4491 51.5342L38.516 51.4065C38.0296 50.7939 37.6053 50.1474 37.2432 49.4669C35.7911 49.9389 33.9804 50.7729 33.0644 52.1435C31.4118 54.6262 32.823 57.7376 32.8372 57.7683C32.8461 57.7877 32.8532 57.8071 32.8585 57.8265H40.861L48.8298 56.4801C49.0321 56.451 49.2292 56.4041 49.4209 56.3395C49.6126 56.2748 49.7972 56.194 49.9712 56.097C50.1452 56 50.3085 55.8869 50.4594 55.7608C50.6103 55.6348 50.7452 55.4958 50.8659 55.3454C50.9866 55.1951 51.0896 55.0351 51.1748 54.8654C51.26 54.6973 51.3274 54.5211 51.3754 54.3401C51.4233 54.1591 51.4517 53.9764 51.4588 53.7905C51.4677 53.6047 51.4553 53.4188 51.4233 53.2345C51.3913 53.0519 51.3399 52.8725 51.2689 52.6979C51.1978 52.5217 51.1091 52.3552 51.0026 52.1969C50.8961 52.0385 50.7718 51.8898 50.6333 51.754C50.4949 51.6166 50.3422 51.4938 50.1753 51.3838C50.0103 51.2755 49.8345 51.1818 49.6481 51.1026C49.4617 51.025 49.27 50.9636 49.0712 50.9216C48.8706 50.8779 48.67 50.8521 48.4641 50.844C48.2599 50.8375 48.0558 50.8488 47.8534 50.8779L37.5432 52.1047C37.458 52.1096 37.3834 52.0869 37.3178 52.0385C37.2539 51.99 37.2148 51.9269 37.2042 51.851C37.1935 51.775 37.213 51.7055 37.261 51.6425C37.3107 51.5794 37.3763 51.5406 37.4598 51.5261L37.4491 51.5342Z" fill="#6D6E71"/>
            <path d="M61.8986 10.6364H43.7617L38.9829 35.2417H66.6756L61.8986 10.6364Z" fill="#ED1C24"/>
            <path d="M39.5864 32.7606L39.1373 35.0736H66.83L62.053 10.4764H61.1087L64.7691 33.1421C64.7691 33.1421 48.1179 32.6442 39.5864 32.7606Z" fill="#D30F1E"/>
            <path d="M37.7136 49.0127C38.1095 49.7934 38.5923 50.5272 39.1586 51.2158C39.1853 51.2465 39.203 51.2804 39.2137 51.3176L45.1889 50.6064C45.1747 50.5822 45.1569 50.5612 45.1445 50.5369C44.4362 49.239 44.6954 47.6615 45.7587 46.7887C46.6783 46.0322 47.9759 45.9094 49.002 45.8868H49.5558C50.4612 45.8803 51.315 45.8738 52.0961 45.5974C52.9606 45.2936 53.7399 44.4967 53.5535 43.6805C53.5251 43.5463 53.5766 43.4445 53.7062 43.375C53.8358 43.3055 53.9583 43.3152 54.0736 43.4025C54.189 43.3152 54.3115 43.3055 54.4411 43.375C54.5707 43.4445 54.6204 43.5463 54.5938 43.6805C54.4074 44.4951 55.1884 45.2936 56.0512 45.5974C56.8323 45.8738 57.6861 45.8803 58.5897 45.8868H59.1453C60.1714 45.9094 61.469 46.0322 62.3886 46.7887C63.4519 47.6615 63.7111 49.239 63.001 50.5353C62.4187 51.6069 61.2578 52.4619 59.7364 52.9404C58.4104 53.3574 57.0116 53.4528 55.6589 53.5433H52.4849L52.0198 53.5109C52.0091 53.519 51.9985 53.5271 51.986 53.5336C51.9967 53.7388 51.9878 53.9425 51.9594 54.1445C51.931 54.3482 51.8813 54.547 51.8138 54.741C51.7446 54.9365 51.6594 55.124 51.5529 55.3051C51.4482 55.4861 51.3257 55.6574 51.1872 55.8174C51.0487 55.9791 50.8943 56.1278 50.7274 56.2635C50.5588 56.3993 50.3795 56.5205 50.186 56.6272C49.9943 56.7339 49.7937 56.8244 49.5842 56.8987C49.3748 56.9731 49.1582 57.0297 48.9381 57.0685L44.3705 57.8411H55.4476C59.0495 57.8136 62.5607 57.2107 65.5998 56.076C65.6815 56.0486 65.7614 56.0518 65.8413 56.0825C65.9212 56.1148 65.9762 56.1666 66.0099 56.2393C66.0419 56.3136 66.0436 56.3864 66.0117 56.4591C65.978 56.5318 65.9229 56.5852 65.8448 56.6175C64.4105 57.146 62.9353 57.5534 61.4211 57.8411H87.3244C87.4629 57.6568 87.5765 57.4612 87.6635 57.2543C87.7522 57.0458 87.8126 56.8325 87.8463 56.611C87.8783 56.3912 87.8836 56.1698 87.8587 55.9483C87.8357 55.7269 87.7842 55.5103 87.7043 55.3002C87.6244 55.0901 87.5197 54.8913 87.3883 54.7022C87.257 54.5147 87.1043 54.3433 86.9286 54.1866C86.7528 54.0314 86.5611 53.8972 86.3516 53.7825C86.1404 53.6677 85.9185 53.5772 85.6859 53.5093L74.687 50.3252C74.6444 50.3139 74.6071 50.2945 74.5751 50.267C73.7461 51.4776 72.7396 52.5508 71.552 53.4835C71.4916 53.532 71.4206 53.5562 71.3408 53.5562C71.1934 53.5562 71.0922 53.4932 71.0408 53.3655C70.9875 53.2394 71.0177 53.1327 71.1295 53.0438C74.3248 50.5078 76.0148 47.2008 76.0148 43.4768C76.0112 42.1013 75.8071 40.7501 75.4041 39.4231C75.0012 38.0977 74.4118 36.8435 73.6361 35.6603H38.8018C38.0278 36.8435 37.4385 38.0961 37.0355 39.4231C36.6308 40.7485 36.4284 42.0981 36.4249 43.4752C36.4018 45.3873 36.8207 47.2154 37.6799 48.961C37.6923 48.9772 37.7048 48.9949 37.7136 49.0127ZM38.8906 38.3887C38.8906 38.3078 38.9225 38.24 38.9847 38.1834C39.0468 38.1252 39.1231 38.0977 39.2119 38.0977H68.552C68.6425 38.0977 68.717 38.1252 68.781 38.1818C68.8431 38.24 68.875 38.3078 68.875 38.3887V41.9462C68.875 42.1175 68.8555 42.2888 68.8182 42.4569C68.7827 42.625 68.7277 42.7883 68.6549 42.9483C68.5821 43.1067 68.4934 43.257 68.3886 43.3992C68.2839 43.5431 68.165 43.6756 68.0301 43.7969C67.8969 43.9181 67.7514 44.0264 67.5934 44.1217C67.4371 44.2187 67.2703 44.2979 67.0963 44.3642C66.9223 44.4305 66.7413 44.4806 66.5567 44.5145C66.3703 44.5484 66.1839 44.5646 65.9939 44.5646H59.6317C59.4418 44.5646 59.2554 44.5484 59.069 44.5145C58.8844 44.4806 58.7033 44.4305 58.5293 44.3642C58.3554 44.2979 58.1885 44.2187 58.0323 44.1217C57.8743 44.0264 57.7287 43.9181 57.5956 43.7969C57.4624 43.6756 57.3417 43.5431 57.237 43.3992C57.1323 43.257 57.0435 43.1067 56.9707 42.9483C56.8979 42.7883 56.8447 42.625 56.8074 42.4569C56.7701 42.2888 56.7506 42.1175 56.7506 41.9462V40.8438H51.0558V41.9462C51.0558 42.1175 51.0381 42.2888 51.0008 42.4569C50.9635 42.6266 50.9085 42.7899 50.8357 42.9499C50.7629 43.1083 50.6742 43.2602 50.5694 43.4025C50.4647 43.5463 50.344 43.6789 50.2109 43.8001C50.0759 43.9229 49.9304 44.0312 49.7742 44.1266C49.6162 44.222 49.4493 44.3028 49.2753 44.369C49.0996 44.4353 48.9203 44.4854 48.7339 44.5194C48.5475 44.5533 48.3594 44.5695 48.1712 44.5695H41.777C41.5871 44.5695 41.3989 44.5533 41.2125 44.5194C41.0279 44.4854 40.8468 44.4353 40.6729 44.369C40.4971 44.3028 40.3302 44.222 40.174 44.1266C40.016 44.0312 39.8705 43.9229 39.7356 43.8001C39.6024 43.6789 39.4835 43.5463 39.377 43.4025C39.2722 43.2602 39.1835 43.1083 39.1107 42.9499C39.0379 42.7899 38.9829 42.6266 38.9456 42.4569C38.9101 42.2888 38.8906 42.1175 38.8906 41.9462V38.3887Z" fill="white"/>
            <path d="M68.552 38.0977C68.6425 38.0977 68.717 38.1252 68.781 38.1818C68.8431 38.24 68.875 38.3078 68.875 38.3887V41.9462C68.875 42.4779 68.7117 42.9661 68.3833 43.4073C68.0123 48.7751 64.7034 55.0222 51.473 55.4279C51.2014 55.8546 50.8446 56.2118 50.4008 56.4979C49.9588 56.784 49.4706 56.9747 48.9381 57.0685L44.3705 57.8411H55.4476C59.0494 57.8136 62.5607 57.2107 65.5998 56.076C65.6815 56.0486 65.7614 56.0518 65.8413 56.0825C65.9211 56.1148 65.9762 56.1666 66.0099 56.2393C66.0419 56.3136 66.0436 56.3864 66.0117 56.4591C65.978 56.5318 65.9229 56.5852 65.8448 56.6175C64.4105 57.146 62.9353 57.5534 61.4211 57.8411H71.3301L74.2751 55.9241C74.2751 55.9241 75.5071 53.2475 76.6148 50.886L74.6834 50.3284C74.6408 50.3171 74.6035 50.2977 74.5716 50.2702C73.7426 51.4808 72.736 52.5541 71.5484 53.4867C71.4881 53.5352 71.4189 53.5594 71.3372 53.5594C71.1899 53.5594 71.0887 53.4964 71.0372 53.3687C70.9857 53.2426 71.0141 53.136 71.126 53.0471C74.3213 50.5111 76.0112 47.2041 76.0112 43.4801C76.0077 42.1046 75.8053 40.7533 75.4023 39.4263C74.9994 38.0993 74.41 36.8435 73.6361 35.6603H67.2064C67.5082 36.4588 67.7478 37.2734 67.9271 38.101L68.552 38.0977Z" fill="#E6E7E8"/>
            <path d="M41.777 43.9795H48.1712C48.3167 43.9795 48.4623 43.965 48.6061 43.9375C48.7499 43.9116 48.8901 43.8728 49.025 43.8211C49.1617 43.7694 49.2895 43.7063 49.412 43.632C49.5327 43.5576 49.6464 43.472 49.7493 43.3782C49.854 43.2845 49.9464 43.181 50.028 43.0695C50.1097 42.9596 50.1789 42.8416 50.2339 42.7188C50.2907 42.5959 50.3333 42.4682 50.3617 42.3373C50.3919 42.2064 50.4061 42.0755 50.4061 41.9413V40.5513C50.4061 40.5077 50.4168 40.464 50.4381 40.4252C50.4594 40.3848 50.4896 40.3509 50.5268 40.3234C50.5659 40.2959 50.6085 40.2765 50.6564 40.2668C50.7044 40.2571 50.7523 40.2571 50.8002 40.2684C50.8233 40.2636 50.8481 40.2604 50.873 40.2604H56.8145C56.8589 40.2604 56.9015 40.2684 56.9441 40.2846C56.9831 40.2684 57.0257 40.2604 57.0701 40.2604C57.1589 40.2604 57.2352 40.2878 57.2974 40.3444C57.3613 40.4026 57.3914 40.4705 57.3914 40.5513V41.9462C57.3914 42.0803 57.4074 42.2113 57.4358 42.3422C57.4642 42.4731 57.5068 42.6008 57.5636 42.7236C57.6187 42.8465 57.6879 42.9645 57.7695 43.076C57.8512 43.1859 57.9453 43.2893 58.0482 43.3831C58.153 43.4768 58.2648 43.5625 58.3873 43.6368C58.5098 43.7096 58.6376 43.7726 58.7743 43.8243C58.9092 43.8761 59.0494 43.9132 59.1932 43.9407C59.337 43.9666 59.4826 43.9795 59.6299 43.9795H65.9939C66.1413 43.9795 66.2868 43.9666 66.4306 43.9407C66.5762 43.9149 66.7146 43.8761 66.8513 43.8243C66.9862 43.7726 67.1158 43.7112 67.2383 43.6368C67.3608 43.5625 67.4726 43.4784 67.5774 43.3831C67.6803 43.2893 67.7744 43.1859 67.8561 43.076C67.9377 42.9645 68.007 42.8481 68.062 42.7236C68.1188 42.6008 68.1614 42.4731 68.1898 42.3422C68.22 42.2113 68.2342 42.0803 68.2342 41.9462V38.6812H39.5332V41.9413C39.5332 42.0755 39.5492 42.208 39.5776 42.3389C39.6077 42.4699 39.6503 42.5976 39.7072 42.7204C39.7622 42.8432 39.8314 42.9612 39.9149 43.0727C39.9965 43.1827 40.0888 43.2861 40.1936 43.3798C40.2965 43.4752 40.4101 43.5593 40.5326 43.6336C40.6551 43.708 40.7829 43.771 40.9196 43.8227C41.0545 43.8744 41.1948 43.9132 41.3385 43.9391C41.4841 43.965 41.6297 43.9795 41.777 43.9795Z" fill="black"/>
            <path d="M88.315 55.1127C88.4854 55.562 88.5511 56.0227 88.5085 56.4963C88.4676 56.9698 88.3238 57.416 88.0753 57.8346H94.1766C94.1588 57.7926 94.1553 57.7505 94.1624 57.7069C94.1837 57.4855 94.1606 57.2689 94.0914 57.0555C94.0222 56.8422 93.9139 56.6482 93.763 56.472C93.6121 56.2975 93.4328 56.1536 93.2215 56.0405C93.0121 55.9273 92.7849 55.853 92.5452 55.8174C92.4458 55.8077 92.3464 55.8045 92.2488 55.8013C92.0677 55.7996 91.8902 55.7835 91.7127 55.7528C91.5209 55.7253 91.3487 55.6574 91.1979 55.5491C91.0452 55.4408 90.9316 55.305 90.8588 55.1418C90.7399 54.8266 90.8588 54.5308 90.9618 54.2916C91.0115 54.1849 91.0487 54.075 91.0718 53.9619C91.1339 53.553 90.6511 53.1747 90.1771 53.1085C89.5452 53.039 88.931 53.1069 88.338 53.317C88.2901 53.3331 88.2404 53.3396 88.1889 53.3348C88.1375 53.3315 88.0913 53.317 88.0469 53.2911C88.0043 53.2669 87.9688 53.2329 87.944 53.1941C87.9173 53.1537 87.9031 53.1101 87.8996 53.0632C87.8872 52.8983 87.8463 52.7399 87.7753 52.5864C87.7043 52.4345 87.6067 52.2971 87.4842 52.1759C87.3599 52.053 87.2179 51.9528 87.0581 51.8752C86.8966 51.7976 86.7262 51.7459 86.5469 51.7201C86.3658 51.6958 86.1865 51.699 86.0072 51.7298C85.828 51.7621 85.6611 51.8186 85.5031 51.9027C85.3451 51.9851 85.2084 52.0902 85.0895 52.2163C84.9723 52.344 84.8818 52.4846 84.8161 52.6381L85.8759 52.9452C86.4493 53.1085 86.9516 53.3816 87.3812 53.7631C87.8126 54.1445 88.1232 54.5955 88.315 55.1127Z" fill="#FFE6BC"/>
            <path d="M73.4337 35.0736L68.6549 10.4684H62.7063L67.4833 35.0736H73.4337Z" fill="#D30F1E"/>
            <path d="M17.0932 57.8346H32.1698C31.8786 57.1169 30.8952 54.2754 32.5177 51.8526C33.5189 50.3478 35.4308 49.4491 36.9769 48.9416C36.5899 48.1156 36.3024 47.2638 36.1106 46.383C35.9953 46.4314 35.8852 46.4201 35.784 46.3506C35.2266 45.9595 34.584 45.5877 34.0426 45.7849C33.6006 45.9433 33.3751 46.4428 33.1532 46.9228L33.1213 46.9923C32.7289 47.8473 32.1982 48.2951 31.5449 48.3258C31.0709 48.3484 30.6662 48.1237 30.3076 47.9282C29.949 47.731 29.6685 47.5774 29.3863 47.6356C29.0756 47.6986 28.8839 48.0413 28.8662 48.329C28.8378 48.67 28.9638 49.0159 29.0934 49.3845L29.1182 49.4604C29.2674 49.8807 29.4165 50.3688 29.3082 50.8569C29.2656 51.046 29.1502 51.1867 28.962 51.2788C28.4259 51.56 27.5277 51.3014 27.4265 51.2707C27.3271 51.2416 27.2348 51.2077 27.1371 51.1753C26.791 51.059 26.4661 50.9474 26.1839 51.0169C25.8075 51.1107 25.5998 51.5277 25.5927 51.8704C25.5839 52.3019 25.7987 52.748 25.9868 53.1424C26.0223 53.2119 26.0241 53.2846 25.9975 53.3574C25.9691 53.4285 25.9176 53.4834 25.8413 53.519C25.2643 53.7889 24.6022 53.5061 24.1726 53.1505C23.8495 52.8838 23.514 52.6478 23.2442 52.7319C23.0755 52.8127 22.9371 52.9258 22.8306 53.0697C22.6264 53.2943 22.3921 53.5416 22.0051 53.6079C21.5134 53.6822 21.1513 53.3897 20.8619 53.1537C20.6631 52.9953 20.4767 52.8385 20.2867 52.8111C20.1607 52.7965 20.0489 52.8256 19.9512 52.9C19.7524 53.0503 19.637 53.241 19.6051 53.4737C19.5909 53.7986 19.637 54.117 19.7418 54.4274C19.779 54.5696 19.8163 54.7118 19.8465 54.8541C19.9317 55.2743 19.9885 56.0485 19.3903 56.5124C19.0193 56.8017 18.54 56.8551 18.082 56.8842C17.7269 56.9052 17.3613 56.9294 17.1181 57.0943C17.0027 57.1783 16.9405 57.2883 16.9334 57.4224C16.9246 57.4806 16.9441 57.5307 16.992 57.5711C17.0772 57.6422 17.1127 57.7295 17.0932 57.8346Z" fill="#FFE6BC"/>
            <path d="M55.4494 58.4197H14.7269V61.2822H97.8814V58.4197H55.4494Z" fill="#C49A6C"/>
            <path d="M52.9074 52.94L52.8221 52.9638H53.1701C53.1541 52.9543 53.1363 52.9496 53.1204 52.94C53.0494 52.9179 52.9784 52.9179 52.9074 52.94Z" fill="#FFE6BC"/>
            <path d="M54.2174 52.9646H55.6464C56.953 52.8757 58.3039 52.7836 59.55 52.3924C60.9098 51.9641 61.9394 51.2158 62.4489 50.2815C63.0223 49.2309 62.8199 47.9217 61.9803 47.2251C61.2187 46.5963 60.0755 46.4961 59.1524 46.4783C58.9784 46.4783 58.7903 46.4783 58.6074 46.4702C57.6843 46.4702 56.7328 46.4557 55.8364 46.1405C55.4441 46.0047 55.0944 45.8043 54.7908 45.5409C54.4873 45.2758 54.2529 44.9687 54.0861 44.6179C53.9192 44.9687 53.6831 45.2758 53.3795 45.5409C53.0742 45.8043 52.7263 46.0047 52.3322 46.1405C51.4428 46.4557 50.4878 46.4557 49.5611 46.4702C49.389 46.4702 49.1972 46.4702 49.0179 46.4783C48.102 46.4961 46.9516 46.5995 46.1901 47.2267C45.3487 47.9168 45.1498 49.2309 45.7197 50.2815C45.7676 50.3656 45.8209 50.448 45.8741 50.5288L47.6351 50.3203C47.2516 49.7417 47.0706 48.7282 47.596 48.2175C47.7345 48.0866 47.8943 47.9815 48.0753 47.9039C48.2564 47.8247 48.4463 47.7778 48.6452 47.7617C48.8458 47.7439 49.041 47.7601 49.2345 47.8069C49.428 47.8554 49.6055 47.9314 49.7688 48.0381C50.1647 48.3048 50.4257 48.725 50.5464 49.2972C51.0629 49.1452 51.5902 49.0968 52.1298 49.1501C52.5896 49.205 52.9553 49.4039 53.2304 49.7417C53.4363 49.9938 53.5074 50.2734 53.4417 50.5805C53.4257 50.6436 53.4062 50.7034 53.3831 50.7632C53.3565 50.823 53.3423 50.8828 53.3369 50.9458C53.3369 51.0105 53.4577 51.0945 53.6085 51.1495C53.6653 51.1705 53.7222 51.1867 53.7825 51.2044C53.9884 51.2578 54.1766 51.3418 54.347 51.4598C54.4446 51.5374 54.5245 51.6295 54.5867 51.7346C54.647 51.8396 54.6843 51.9512 54.7003 52.0692C54.7145 52.1872 54.7056 52.3035 54.6736 52.4183C54.6399 52.5331 54.5867 52.6381 54.5103 52.7351C54.4287 52.8288 54.331 52.9064 54.2174 52.9646Z" fill="#232323"/>
            <path d="M53.9937 52.3779C54.0488 52.3019 54.0701 52.2211 54.0577 52.1306C54.047 52.0417 54.0044 51.9673 53.9334 51.9043C53.8233 51.8332 53.7026 51.7815 53.573 51.7475C53.5056 51.7265 53.4399 51.7071 53.3742 51.6829C52.9819 51.5423 52.7369 51.2933 52.6996 51.0024C52.689 50.8537 52.7138 50.7115 52.7724 50.5741C52.7884 50.5337 52.8026 50.4933 52.8133 50.4512C52.8381 50.3106 52.8044 50.1845 52.7085 50.073C52.5434 49.8726 52.3269 49.7546 52.0535 49.7207C51.4854 49.6673 50.9422 49.7465 50.4203 49.9583C50.3724 49.9777 50.3227 49.9874 50.2712 49.9841C50.218 49.9825 50.17 49.9696 50.1239 49.9453C50.0795 49.9211 50.0422 49.8904 50.0138 49.85C49.9872 49.8096 49.9694 49.7659 49.9659 49.7191C49.9251 49.3166 49.7919 48.7751 49.3872 48.5036C49.2878 48.4422 49.1795 48.3969 49.0623 48.3694C48.9452 48.3419 48.8262 48.3323 48.7055 48.3419C48.5866 48.3533 48.4712 48.3807 48.3611 48.4276C48.2528 48.4729 48.1552 48.5343 48.0682 48.6119C47.77 48.9028 47.9422 49.7805 48.2777 50.1328C48.3221 50.1781 48.3469 50.2298 48.3522 50.2896C48.7552 50.3025 49.144 50.372 49.5221 50.4981C49.8984 50.6242 50.2464 50.8004 50.5606 51.0266C50.8765 51.2529 51.1464 51.5196 51.3683 51.8235C51.5902 52.1274 51.7553 52.4571 51.8618 52.8078C52.1245 52.5977 52.4245 52.4522 52.7636 52.3714C53.0156 52.3035 53.2517 52.331 53.4754 52.4555C53.5606 52.5023 53.6529 52.5169 53.7506 52.5023C53.8482 52.4878 53.9298 52.4458 53.9937 52.3779Z" fill="#FFE6BC"/>
            <path d="M52.5328 49.2422C52.815 49.3473 53.0458 49.5122 53.2251 49.7368C53.4328 49.9873 53.502 50.267 53.4363 50.5757C53.4204 50.6371 53.4008 50.6969 53.3778 50.7583C53.3511 50.8165 53.3369 50.8779 53.3316 50.941C53.3316 51.004 53.4541 51.0881 53.6032 51.143C53.66 51.164 53.7168 51.1818 53.7772 51.198C53.9831 51.2513 54.1713 51.3354 54.3417 51.4534C54.4411 51.5309 54.5192 51.6231 54.5813 51.7281C54.6417 51.8332 54.679 51.9447 54.6949 52.0627C54.7091 52.1807 54.7003 52.2971 54.6683 52.4118C54.6346 52.5266 54.5813 52.6316 54.505 52.7286C54.4233 52.8256 54.3239 52.9048 54.2068 52.9646H55.6358C56.9441 52.8757 58.295 52.7836 59.5394 52.3924C60.8992 51.9657 61.9306 51.2158 62.4383 50.2815C62.6424 49.9081 62.7507 49.5138 62.7613 49.0968C62.7738 48.6797 62.6868 48.2805 62.5022 47.8974C61.3146 47.5241 60.0915 47.3398 58.8329 47.3447C56.2962 47.3447 54.0168 48.0849 52.5328 49.2422Z" fill="#FF7D87"/>
            <path d="M47.6919 10.4684L43.1829 35.0736H39.1373L43.9161 10.4684H47.6919Z" fill="white"/>
            <path d="M58.4299 10.4684L62.9353 35.0736H66.9827L62.2039 10.4684H58.4299Z" fill="white"/>
            <path d="M66.0543 10.4684L70.5597 35.0736H73.3218L68.5431 10.4684H66.0543Z" fill="#E6E7E8"/>
            <path d="M51.5351 10.4684L49.4511 35.0736H56.5181L54.4322 10.4684H51.5351Z" fill="white"/>
            <path d="M63.5957 36.8693C62.2927 37.0455 61.0856 37.456 59.9743 38.0977H68.552C68.6425 38.0977 68.717 38.1252 68.781 38.1818C68.8431 38.2399 68.875 38.3078 68.875 38.3886V41.9462C68.875 42.1175 68.8555 42.2888 68.8182 42.4569C68.7827 42.625 68.7277 42.7883 68.6549 42.9483C68.5821 43.1067 68.4934 43.257 68.3886 43.3992C68.2839 43.5431 68.165 43.6756 68.0301 43.7968C67.8969 43.9181 67.7514 44.0264 67.5934 44.1217C67.4371 44.2187 67.2703 44.2979 67.0963 44.3642C66.9223 44.4304 66.7413 44.4806 66.5567 44.5145C66.3703 44.5484 66.1839 44.5646 65.9939 44.5646H59.6317C58.9891 44.5662 58.4104 44.39 57.8991 44.0361C58.1299 44.4078 58.4299 44.7262 58.7974 44.9897C59.6353 45.5845 60.7039 45.8043 61.7424 46.0064L67.1407 47.0667C68.2697 47.2865 69.4502 47.5095 70.5668 47.2445C72.6082 46.7612 73.8491 44.7052 73.755 42.7915C73.6769 41.1526 72.6597 38.6634 71.0407 37.747C69.0188 36.5962 65.8732 36.5218 63.5957 36.8693Z" fill="#6D6E71"/>
            <path d="M67.9324 38.0977H68.552C68.6425 38.0977 68.717 38.1252 68.781 38.1818C68.8431 38.24 68.875 38.3078 68.875 38.3887V41.9462C68.875 42.0286 68.875 42.103 68.8608 42.187C68.8608 42.2113 68.8608 42.2339 68.852 42.2581C68.852 42.3163 68.836 42.3729 68.8236 42.4295C68.8236 42.4537 68.8147 42.4763 68.8094 42.499C68.7916 42.5749 68.7703 42.6493 68.7454 42.7236C68.7188 42.7947 68.6922 42.8642 68.6602 42.9337L68.6283 42.9968C68.6052 43.0485 68.5768 43.0986 68.5502 43.1471C68.5378 43.1681 68.5271 43.1875 68.5129 43.2101C68.4738 43.2748 68.4312 43.3394 68.3869 43.4009C68.3088 44.6842 68.0407 45.9353 67.5827 47.1507C68.5786 47.3382 69.6029 47.4772 70.5792 47.2477C72.6189 46.7644 73.8615 44.7085 73.7674 42.7947C73.6875 41.1558 72.6721 38.6667 71.0514 37.7502C70.0786 37.199 68.8502 36.8968 67.588 36.7675C67.6945 37.1344 67.8153 37.5821 67.9324 38.0977Z" fill="#58595B"/>
            <path d="M46.6907 46.0064C47.7292 45.8043 48.8049 45.5845 49.6339 44.9897C50.731 44.2122 51.2316 42.8594 51.0487 41.6051V41.9413C51.0487 42.1143 51.031 42.284 50.9937 42.4537C50.9564 42.6218 50.9014 42.785 50.8286 42.9451C50.7558 43.1035 50.6671 43.2554 50.5623 43.3976C50.4576 43.5415 50.3369 43.674 50.2038 43.7952C50.0706 43.9181 49.9233 44.0264 49.7671 44.1217C49.6091 44.2171 49.4422 44.2979 49.2682 44.3642C49.0925 44.4305 48.9132 44.4806 48.7268 44.5145C48.5404 44.5484 48.354 44.5646 48.1641 44.5646H41.777C41.5871 44.5646 41.3989 44.5484 41.2125 44.5145C41.0279 44.4806 40.8468 44.4305 40.6729 44.3642C40.4971 44.2979 40.3302 44.2171 40.174 44.1217C40.016 44.0264 39.8705 43.9181 39.7356 43.7952C39.6024 43.674 39.4835 43.5415 39.377 43.3976C39.2722 43.2554 39.1835 43.1035 39.1107 42.9451C39.0379 42.785 38.9829 42.6218 38.9456 42.4537C38.9101 42.284 38.8906 42.1143 38.8906 41.9413V38.3886C38.8906 38.3078 38.9225 38.2399 38.9847 38.1834C39.0468 38.1252 39.1231 38.0977 39.2119 38.0977H48.4694C47.3582 37.4544 46.151 37.0455 44.8481 36.8693C42.7036 36.5428 39.787 36.5897 37.7562 37.5595C36.8758 39.449 36.4355 41.4192 36.432 43.472C36.4266 44.6179 36.5775 45.7461 36.8811 46.8582C37.1882 47.0311 37.5148 47.1604 37.8645 47.2445C38.9829 47.5095 40.1616 47.2865 41.2906 47.0667L46.6907 46.0064Z" fill="#6D6E71"/>
            <path d="M85.6859 53.5028L74.687 50.3187C74.6443 50.3074 74.6071 50.288 74.5751 50.2605C73.7461 51.4711 72.7396 52.5444 71.552 53.477C71.4916 53.5255 71.4206 53.5497 71.3408 53.5497C71.2431 53.5497 71.1632 53.5158 71.0993 53.4495C71.0549 53.4042 71.0301 53.3509 71.023 53.2911C69.5904 54.6084 67.9289 55.6138 66.0401 56.3055C66.0472 56.3702 66.033 56.43 65.9975 56.485C65.9602 56.5415 65.9087 56.5803 65.8448 56.6046C65.172 56.8535 64.4797 57.0781 63.7661 57.2753C63.498 57.4337 63.2335 57.5808 62.9619 57.7231C62.8998 57.7554 62.8359 57.7926 62.7738 57.8281H87.3244C87.4629 57.6455 87.5765 57.4483 87.6635 57.2414C87.7522 57.0345 87.8126 56.8195 87.8463 56.5997C87.8783 56.3783 87.8836 56.1568 87.8587 55.9354C87.8357 55.714 87.7842 55.499 87.7043 55.2873C87.6244 55.0771 87.5197 54.8783 87.3883 54.6892C87.257 54.5017 87.1043 54.3304 86.9285 54.1736C86.7528 54.0184 86.5611 53.8843 86.3516 53.7695C86.1404 53.6548 85.9185 53.5643 85.6859 53.4964V53.5028Z" fill="#6D6E71"/>
            <path d="M43.6108 32.7445L43.1829 35.0736H39.1391L39.5882 32.7606C40.79 32.7445 42.1533 32.7412 43.6108 32.7445Z" fill="#E6E7E8"/>
            <path d="M66.9827 35.0736H62.9353L62.5714 33.079H62.6122C62.7454 33.0823 62.8749 33.0726 63.0063 33.0499C63.1359 33.0273 63.2619 32.9934 63.3826 32.9449C63.5051 32.898 63.6187 32.8382 63.727 32.7671C63.8335 32.6976 63.9312 32.6168 64.0199 32.5263C64.1069 32.4357 64.1833 32.3388 64.2472 32.2337C64.3111 32.1286 64.3625 32.0187 64.3998 31.9024C64.4389 31.7876 64.462 31.6696 64.4708 31.55C64.4797 31.4288 64.4744 31.3092 64.4549 31.1912L61.1087 10.4764H62.2057L66.9827 35.0736Z" fill="#E6E7E8"/>
            <path d="M56.5181 35.0736H49.4493L49.6428 32.8026C51.9434 32.8366 54.2441 32.8835 56.3352 32.9303L56.5181 35.0736Z" fill="#E6E7E8"/>
            <path d="M43.6108 32.7445L43.1829 35.0736H39.1391L39.5847 32.7606C40.79 32.7445 42.1533 32.7412 43.6108 32.7445Z" fill="#E6E7E8"/>
            <path d="M87.6439 57.2753C85.6025 57.1945 83.6125 56.8567 81.6758 56.2635C80.3285 55.8497 78.9829 55.2873 78.0545 54.311C77.2148 53.4269 76.803 52.137 77.2272 51.0557L74.6799 50.3187C74.639 50.3074 74.6 50.288 74.568 50.2605C73.739 51.4711 72.7325 52.5444 71.5449 53.477C71.4845 53.5255 71.4153 53.5497 71.3337 53.5497C71.236 53.5497 71.1561 53.5158 71.0922 53.4495C71.0478 53.4042 71.023 53.3509 71.0159 53.2911C69.5833 54.6084 67.9218 55.6138 66.033 56.3055C66.0401 56.3702 66.0259 56.43 65.9904 56.485C65.9531 56.5415 65.9034 56.5803 65.8377 56.6046C65.1649 56.8535 64.4726 57.0781 63.759 57.2753C63.4927 57.4337 63.2264 57.5808 62.9548 57.7231C62.8927 57.7554 62.8288 57.7926 62.7667 57.8281H87.3244C87.454 57.6552 87.5605 57.4709 87.6439 57.2753Z" fill="#58595B"/>
            <path d="M68.2324 41.9462V38.6812H66.83V42.0642L59.8323 43.0582C59.8323 43.0582 58.1654 43.3491 57.3932 41.9575C57.3932 42.09 57.4092 42.2226 57.4376 42.3535C57.466 42.4844 57.5086 42.6121 57.5654 42.7349C57.6204 42.8578 57.6897 42.9758 57.7713 43.0857C57.853 43.1972 57.9471 43.299 58.05 43.3944C58.1548 43.4881 58.2666 43.5722 58.3891 43.6465C58.5116 43.7209 58.6394 43.7839 58.7761 43.8357C58.911 43.8858 59.0512 43.9245 59.195 43.9504C59.3388 43.9779 59.4844 43.9908 59.6317 43.9908H65.9939C66.1413 43.9908 66.2886 43.9779 66.4324 43.9504C66.5762 43.9245 66.7164 43.8858 66.8531 43.834C66.9898 43.7823 67.1194 43.7193 67.2401 43.6449C67.3626 43.5706 67.4762 43.4849 67.5809 43.3895C67.6839 43.2958 67.7762 43.1924 67.8579 43.0808C67.9395 42.9693 68.0087 42.8513 68.0638 42.7269C68.1206 42.604 68.1632 42.4763 68.1916 42.3438C68.22 42.2129 68.2324 42.0803 68.2324 41.9462Z" fill="black"/>
            <path d="M36.9592 48.9076C36.8367 48.885 36.7124 48.8705 36.5864 48.8672C36.3308 49.0014 36.0556 49.066 35.7592 49.0563C35.4627 49.0483 35.1929 48.9691 34.9461 48.8187C34.4704 48.5197 34.0213 48.0316 34.1242 47.5144C33.7781 48.051 32.9491 48.3225 32.3633 48.0025C32.5497 48.2272 32.9065 48.4017 32.9899 48.6684C33.0538 48.8899 33.0591 49.1113 33.0023 49.3344C32.9437 49.5574 32.8337 49.7562 32.6686 49.9275C32.3384 50.2637 31.8964 50.5304 31.3993 50.5353H31.213C31.8325 50.941 31.8662 51.8995 31.2751 52.3391C31.5218 52.8353 31.6638 53.3558 31.7011 53.8988C31.8254 53.1634 32.097 52.4749 32.5177 51.8364C33.5189 50.3316 35.4308 49.4329 36.9769 48.9238C36.9716 48.919 36.9663 48.9125 36.9592 48.9076Z" fill="#E2C191"/>
            <path d="M32.1698 57.8346C31.7881 56.8745 31.5999 55.8853 31.607 54.8638C31.5343 55.1434 31.3532 55.3374 31.0621 55.4473C30.6271 55.583 30.1425 55.2889 29.9455 54.9155C29.7484 54.5438 29.7715 54.1009 29.7822 53.6823C29.681 53.7792 29.5603 53.8471 29.4218 53.8859C29.2816 53.9263 29.1395 53.9328 28.9958 53.9069C28.7117 53.852 28.4455 53.7566 28.1969 53.6176C27.8295 53.4366 27.2987 53.4608 26.9295 53.2846C27.3111 53.6499 27.6804 54.088 27.6839 54.5922C27.6892 55.0949 27.1301 55.6105 26.6152 55.4279C26.4093 55.3341 26.2407 55.2032 26.1076 55.0351C25.9744 54.8638 25.8004 54.7426 25.5874 54.6682C25.3709 54.6149 25.0939 54.7199 25.0673 54.9204C25.3247 55.124 25.4809 55.3794 25.5395 55.6849C25.5626 55.8368 25.5324 55.979 25.4472 56.1116C25.3638 56.2457 25.243 56.3411 25.0851 56.3977C24.7708 56.4833 24.2188 56.27 24.2827 55.979C24.2312 56.2053 24.1389 56.4171 24.0057 56.6159C23.8744 56.8131 23.7093 56.9844 23.5105 57.1315C23.3134 57.277 23.0951 57.3885 22.8554 57.4661C22.6158 57.5437 22.3673 57.5824 22.1134 57.5824C21.8578 57.5711 21.6128 57.521 21.3767 57.4321C21.1424 57.3432 20.9294 57.2204 20.7394 57.0652C20.5513 56.9101 20.395 56.7306 20.2743 56.527C20.1536 56.3217 20.0737 56.1051 20.0347 55.8772L19.8217 55.8869C19.7471 56.1342 19.6051 56.3411 19.3921 56.5076C19.0211 56.7969 18.5418 56.8502 18.0838 56.8793C17.7287 56.9004 17.3613 56.9246 17.1198 57.0895C17.0045 57.1735 16.9423 57.2834 16.9335 57.4176C16.9264 57.4758 16.9459 57.5259 16.9938 57.5663C17.0843 57.6374 17.1198 57.7279 17.1003 57.8346H32.1698Z" fill="#E2C191"/>
            <path d="M86.7635 53.2588C86.8327 53.3768 86.9143 53.4851 87.0084 53.5869C87.1043 53.6887 87.209 53.7792 87.3262 53.8601C87.4416 53.9409 87.5658 54.0104 87.699 54.067C87.8303 54.1235 87.9688 54.1655 88.1108 54.1963C88.2546 54.2254 88.3984 54.2415 88.5457 54.2431C88.6913 54.2447 88.8369 54.2318 88.9807 54.206C89.1227 54.1801 89.2629 54.1397 89.396 54.0863C89.531 54.033 89.657 53.9667 89.7742 53.8892C89.7759 54.0007 89.7919 54.1122 89.8203 54.2205C89.8487 54.3304 89.8913 54.4355 89.9463 54.5357C89.9996 54.6359 90.0671 54.7313 90.1452 54.8185C90.2215 54.9058 90.3103 54.9834 90.4079 55.0529C90.5037 55.1224 90.6085 55.1806 90.7203 55.2291C90.8322 55.2776 90.9475 55.3131 91.0683 55.339C91.189 55.3632 91.3115 55.3746 91.4357 55.3746C91.5582 55.3746 91.6807 55.3616 91.8014 55.3358C92.5079 55.1903 93.1576 55.672 93.6884 56.1164C93.9565 56.3427 94.1659 56.6078 94.315 56.9117C94.4659 57.2139 94.5458 57.5323 94.5547 57.8637C92.3215 58.229 90.0919 58.2144 87.8658 57.8184C88.212 57.0313 88.5191 56.1391 88.1765 55.3552C88.0008 55.006 87.77 54.6925 87.4842 54.4112C87.1753 54.088 87.0635 53.5837 86.7635 53.2588Z" fill="#E2C191"/>
            <path d="M48.8191 56.4866C49.0126 56.4542 49.2008 56.4041 49.3836 56.3379C49.5665 56.2716 49.7404 56.1908 49.9073 56.0954C50.0742 55.9984 50.2286 55.8901 50.3724 55.7673C50.5144 55.6445 50.644 55.5103 50.7594 55.3648C50.8748 55.221 50.9742 55.0674 51.0594 54.9042C51.1428 54.7426 51.2085 54.5745 51.2564 54.4015C51.3044 54.2286 51.3345 54.0524 51.347 53.873C51.3594 53.6952 51.3523 53.5158 51.3257 53.3396C51.4996 55.8045 40.6782 56.6191 40.6782 56.6191H32.4591C32.5497 57.0151 32.6757 57.4014 32.8337 57.778C32.8426 57.7974 32.8497 57.8168 32.855 57.8362H40.8575L48.8191 56.4866Z" fill="#58595B"/>
            <path d="M37.9728 50.671C37.703 50.2815 37.458 49.8807 37.2361 49.4669C35.784 49.9389 33.9734 50.7729 33.0574 52.1435C32.223 53.4026 32.1698 54.8185 32.3242 55.9095C32.3242 55.9095 33.6875 50.844 37.9728 50.671Z" fill="#939598"/>
            <path d="M14.7198 60.3738H97.8725V61.2822H14.7198V60.3738Z" fill="#A97C50"/>
            <path d="M97.8725 58.4197H14.7269V59.0258H97.8814L97.8725 58.4197Z" fill="#FFDEBD"/>
            <path d="M61.7264 46.8743C61.5205 46.5446 60.8743 46.745 60.5743 46.8291C59.708 47.0861 58.9252 47.4788 58.2258 48.0074C57.837 48.2773 57.5015 48.5909 57.2192 48.9529C56.9175 49.315 56.7204 49.7191 56.6281 50.1652C56.6175 50.2444 56.7328 50.2492 56.7737 50.2007C57.0595 49.8565 57.3879 49.5526 57.7607 49.2859C58.1068 49.0386 58.4228 48.7735 58.7778 48.544C59.4986 48.1092 60.2619 47.7455 61.066 47.453C61.3181 47.3512 61.9696 47.2623 61.7264 46.8743Z" fill="#232323"/>
            <path d="M58.5169 39.4667H67.107V40.144C67.107 40.3444 67.0857 40.5432 67.0413 40.7388C66.9987 40.936 66.9348 41.1267 66.8496 41.3126C66.7661 41.4968 66.6614 41.673 66.5389 41.8395C66.4164 42.0076 66.2762 42.1611 66.12 42.3034C65.9638 42.444 65.7951 42.5701 65.6105 42.6816C65.4276 42.7931 65.2342 42.8869 65.03 42.9628C64.8259 43.0404 64.6146 43.097 64.398 43.1358C64.1815 43.1746 63.9631 43.194 63.743 43.194H61.8755C61.6554 43.194 61.4371 43.1746 61.2205 43.1358C61.0039 43.097 60.7944 43.0388 60.5903 42.9612C60.3879 42.8853 60.1944 42.7915 60.0098 42.68C59.827 42.5685 59.6566 42.4424 59.5021 42.3001C59.3459 42.1579 59.2057 42.0044 59.0832 41.8379C58.9607 41.6714 58.8577 41.4952 58.7725 41.311C58.6891 41.1251 58.6252 40.9344 58.5826 40.7372C58.54 40.5416 58.5169 40.3428 58.5169 40.1424V39.4651V39.4667Z" fill="#00AEEF"/>
            <path d="M40.6782 39.4667H49.2665V40.144C49.2665 40.3444 49.2452 40.5432 49.2026 40.7388C49.1582 40.936 49.0943 41.1267 49.0108 41.3126C48.9256 41.4968 48.8227 41.673 48.7002 41.8395C48.5759 42.0076 48.4375 42.1611 48.2812 42.3034C48.125 42.444 47.9546 42.5701 47.7718 42.6816C47.5872 42.7931 47.3937 42.8869 47.1895 42.9628C46.9854 43.0404 46.7759 43.097 46.5593 43.1358C46.3428 43.1746 46.1244 43.194 45.9043 43.194H44.0368C43.8167 43.194 43.5983 43.1746 43.3818 43.1358C43.1652 43.097 42.9557 43.0388 42.7516 42.9612C42.5474 42.8853 42.3539 42.7915 42.1711 42.68C41.9865 42.5685 41.8178 42.4424 41.6616 42.3001C41.5054 42.1579 41.3669 42.0044 41.2445 41.8379C41.122 41.6714 41.019 41.4952 40.9338 41.311C40.8486 41.1251 40.7865 40.9344 40.7421 40.7372C40.6995 40.5416 40.6782 40.3428 40.6782 40.1424V39.4651V39.4667Z" fill="#ED1C24"/>
            <path d="M41.777 44.7586H48.1712C48.3736 44.7586 48.5759 44.7408 48.7747 44.7052C48.9753 44.668 49.1688 44.6147 49.357 44.5436C49.5452 44.4725 49.7245 44.3868 49.8931 44.2834C50.0617 44.1815 50.2197 44.0635 50.3635 43.9326C50.5073 43.8017 50.6351 43.6595 50.7487 43.5059C50.8623 43.3524 50.9582 43.1907 51.0363 43.0194C51.1144 42.8481 51.173 42.6719 51.2121 42.4909C51.2529 42.3098 51.2724 42.1256 51.2724 41.9413V41.0394H56.5376V41.9462C56.5376 42.1304 56.5589 42.3131 56.5979 42.4941C56.637 42.6751 56.6973 42.8513 56.7737 43.0226C56.8518 43.1923 56.9476 43.354 57.0613 43.5075C57.1731 43.6611 57.3027 43.8033 57.4447 43.9342C57.5885 44.0652 57.7447 44.1815 57.9151 44.2834C58.0838 44.3868 58.2613 44.4725 58.4494 44.5436C58.6376 44.6147 58.8311 44.668 59.0299 44.7036C59.2287 44.7408 59.4293 44.7586 59.6335 44.7586H65.9939C66.1981 44.7586 66.3987 44.7408 66.5993 44.7052C66.7981 44.668 66.9916 44.6147 67.1797 44.5436C67.3661 44.4741 67.5454 44.3868 67.7141 44.285C67.8827 44.1815 68.0389 44.0652 68.1827 43.9342C68.3265 43.8033 68.4561 43.6627 68.5679 43.5091C68.6815 43.3556 68.7774 43.1923 68.8555 43.0226C68.9318 42.8513 68.9922 42.6751 69.0312 42.4941C69.0721 42.3131 69.0916 42.1304 69.0916 41.9462V38.3886C69.0916 38.324 69.0774 38.2626 69.0508 38.2028C69.0241 38.143 68.9851 38.0896 68.9336 38.0444C68.8839 37.9991 68.8253 37.9636 68.7596 37.9393C68.694 37.9151 68.6265 37.9021 68.5537 37.9021H39.2119C39.1409 37.9021 39.0716 37.9151 39.006 37.9393C38.9403 37.9636 38.8835 37.9991 38.832 38.0444C38.7823 38.0896 38.7432 38.143 38.7166 38.2028C38.69 38.2626 38.6758 38.324 38.6758 38.3886V41.9413C38.6758 42.1256 38.6971 42.3098 38.7361 42.4909C38.7752 42.6719 38.8355 42.8481 38.9137 43.0194C38.9918 43.1891 39.0858 43.3524 39.1995 43.5059C39.3131 43.6595 39.4409 43.8017 39.5847 43.9326C39.7285 44.0635 39.8847 44.1799 40.0551 44.2834C40.2237 44.3852 40.403 44.4725 40.5912 44.5436C40.7776 44.6147 40.9729 44.668 41.1717 44.7036C41.3705 44.7408 41.5729 44.7586 41.777 44.7586ZM39.748 38.8768H68.0176V41.9462C68.0176 42.0674 68.0034 42.187 67.9786 42.305C67.9519 42.423 67.9129 42.5377 67.8632 42.6493C67.8117 42.7608 67.7496 42.8659 67.675 42.9661C67.6022 43.0663 67.5188 43.16 67.4247 43.2457C67.3306 43.3297 67.2277 43.4073 67.1176 43.4736C67.0076 43.5415 66.8904 43.598 66.7679 43.6433C66.6454 43.6902 66.5194 43.7257 66.3898 43.7484C66.2584 43.7726 66.1271 43.7839 65.9939 43.7839H59.6317C59.4986 43.7839 59.3672 43.7726 59.2376 43.7484C59.1063 43.7257 58.9802 43.6902 58.8577 43.6449C58.7352 43.598 58.6181 43.5415 58.508 43.4736C58.398 43.4073 58.295 43.3314 58.2009 43.2457C58.1068 43.16 58.0234 43.0679 57.9506 42.9677C57.8761 42.8675 57.8139 42.7608 57.7624 42.6493C57.7127 42.5377 57.6737 42.423 57.6471 42.305C57.6222 42.187 57.608 42.0674 57.608 41.9462V40.5513C57.608 40.4866 57.5956 40.4252 57.5672 40.3654C57.5406 40.3056 57.5015 40.2523 57.4518 40.207C57.4003 40.1617 57.3417 40.1262 57.2761 40.1019C57.2104 40.0777 57.1429 40.0648 57.0719 40.0648C57.0293 40.0648 56.9867 40.0712 56.9459 40.0809C56.9033 40.0712 56.8607 40.0648 56.8163 40.0648H50.8801C50.8552 40.0632 50.8304 40.0632 50.8073 40.0648C50.7825 40.0632 50.7576 40.0632 50.7345 40.0648C50.6635 40.0648 50.5943 40.0777 50.5286 40.1019C50.4629 40.1262 50.4061 40.1617 50.3564 40.207C50.3049 40.2539 50.2677 40.3056 50.2393 40.3654C50.2126 40.4252 50.1984 40.4866 50.1984 40.5513V41.9413C50.1984 42.0625 50.186 42.1821 50.1594 42.3001C50.1328 42.4197 50.0955 42.5345 50.044 42.646C49.9925 42.7576 49.9304 42.8642 49.8558 42.9644C49.783 43.0663 49.6978 43.1584 49.6037 43.2441C49.5097 43.3297 49.4085 43.4057 49.2966 43.4736C49.1866 43.5415 49.0694 43.598 48.9469 43.6433C48.8244 43.6902 48.6966 43.7257 48.567 43.7484C48.4357 43.7726 48.3043 43.7839 48.1712 43.7839H41.777C41.6439 43.7839 41.5107 43.7726 41.3811 43.7484C41.2498 43.7257 41.1237 43.6902 41.0013 43.6433C40.877 43.598 40.7598 43.5415 40.6498 43.4736C40.5397 43.4057 40.4368 43.3297 40.3427 43.2441C40.2486 43.1584 40.1652 43.0663 40.0906 42.9644C40.016 42.8642 39.9539 42.7576 39.9024 42.646C39.8527 42.5345 39.8137 42.4197 39.787 42.3001C39.7604 42.1821 39.748 42.0625 39.748 41.9413V38.8768Z" fill="black"/>
            <path d="M98.1938 57.6406H95.0269C95.0322 57.4871 95.0216 57.3335 94.9967 57.18C94.9719 57.0264 94.931 56.8777 94.876 56.7306C94.821 56.5852 94.7517 56.4446 94.6683 56.3104C94.5849 56.1763 94.489 56.0486 94.3789 55.9306C94.2707 55.8126 94.1499 55.7027 94.0186 55.6041C93.8872 55.5055 93.7488 55.4198 93.5996 55.3438C93.4505 55.2679 93.2961 55.2065 93.1345 55.1564C92.9748 55.1062 92.8097 55.0707 92.641 55.0481C92.5221 55.0351 92.4032 55.0319 92.2807 55.027C92.1493 55.0254 92.0197 55.0157 91.8902 54.9947C91.8032 54.985 91.7286 54.9511 91.67 54.8929C91.6807 54.783 91.7126 54.6779 91.7641 54.5777C91.8387 54.4177 91.8902 54.2528 91.9221 54.0815C92.057 53.1974 91.1943 52.4733 90.3067 52.3504C89.7386 52.2809 89.1777 52.3084 88.6221 52.4329C88.5422 52.2227 88.4303 52.0288 88.2865 51.8494C88.1428 51.67 87.9723 51.5132 87.7771 51.379C87.5818 51.2465 87.3706 51.1414 87.1398 51.0671C86.9108 50.9911 86.6729 50.9475 86.4297 50.9378C86.1865 50.9264 85.9451 50.9475 85.709 51.0024C85.4729 51.0574 85.2492 51.1414 85.0398 51.2578C84.8321 51.3725 84.6457 51.5132 84.4841 51.678C84.3208 51.8445 84.1894 52.0272 84.0865 52.2292L75.2088 49.6528C76.3343 47.7197 76.8899 45.6589 76.874 43.472C76.8686 42.0108 76.6503 40.5788 76.2189 39.1726C75.7858 37.7664 75.1556 36.4394 74.3248 35.1883L69.4591 10.0917C69.4537 10.074 69.4484 10.0546 69.4431 10.0368C69.4431 10.0239 69.4342 10.0093 69.4289 9.998C69.4236 9.98507 69.4129 9.96891 69.4058 9.95436C69.3969 9.94143 69.3898 9.92688 69.381 9.91395C69.3721 9.90264 69.3632 9.89294 69.3525 9.88324C69.3419 9.86708 69.3277 9.85415 69.3153 9.8396L69.2815 9.81536C69.2656 9.80404 69.2531 9.79111 69.2372 9.78142C69.223 9.77333 69.2088 9.76525 69.1928 9.7604C69.1786 9.75071 69.1626 9.74262 69.1466 9.73616C69.1307 9.73616 69.1164 9.72646 69.1005 9.72161L69.049 9.70706C69.033 9.70545 69.017 9.70545 69.0011 9.70706L68.9389 9.68929H43.6516C43.5238 9.6909 43.4102 9.72969 43.3125 9.80566C43.2149 9.88163 43.1545 9.97699 43.1332 10.0917L38.2835 34.9653C38.2497 34.9928 38.2213 35.0251 38.1983 35.059C37.3426 36.3246 36.6911 37.671 36.2438 39.0998C35.7982 40.5287 35.5728 41.9866 35.5692 43.472C35.5692 44.0991 35.61 44.723 35.6953 45.3453C35.1627 45.0527 34.4384 44.7909 33.7088 45.056C32.9331 45.3388 32.6065 46.0468 32.3455 46.6157L32.3136 46.6852C32.1698 47.0004 31.8733 47.5225 31.4881 47.5403C31.2768 47.5548 31.0123 47.4061 30.7354 47.2542C30.3183 47.0263 29.8017 46.7418 29.1768 46.8695C28.5307 47.002 28.0407 47.5758 27.9839 48.266C27.975 48.7331 28.0638 49.1824 28.252 49.6172L28.2768 49.6916C28.4028 49.989 28.4596 50.2961 28.4508 50.6129C28.1845 50.6339 27.9253 50.6048 27.6732 50.524C27.5863 50.4981 27.4993 50.4674 27.4105 50.4383C26.9969 50.2977 26.4803 50.1231 25.9318 50.2605C25.2271 50.4367 24.7194 51.0913 24.7105 51.8526C24.7105 52.1274 24.7531 52.3957 24.8418 52.6575C24.8028 52.63 24.7637 52.601 24.7265 52.5686C24.4034 52.3035 23.7306 51.7475 22.946 51.9884C22.6176 52.1112 22.3513 52.3035 22.1471 52.567C22.0424 52.6818 21.9128 52.8224 21.84 52.8337C21.7672 52.845 21.5631 52.6915 21.4104 52.567C21.1548 52.3601 20.8388 52.095 20.4039 52.0369C20.0347 51.9851 19.7027 52.0643 19.4098 52.2745C19.0139 52.5605 18.7885 52.9323 18.7317 53.3881C18.7051 53.8019 18.7565 54.2076 18.8861 54.6052C18.9216 54.7345 18.9554 54.8622 18.982 54.9915C19.069 55.4198 19.0051 55.7641 18.808 55.9176C18.611 56.0696 18.3145 56.0744 17.9986 56.1019C17.5654 56.1278 17.024 56.1633 16.5784 56.4672C16.2465 56.7032 16.0725 57.0119 16.0583 57.3933C16.0547 57.4774 16.0618 57.5598 16.0814 57.6406H14.3967C14.3257 57.6406 14.2583 57.6536 14.1926 57.6778C14.1269 57.7021 14.0683 57.7376 14.0186 57.7829C13.9689 57.8297 13.9299 57.8815 13.9032 57.9413C13.8748 58.0011 13.8624 58.0625 13.8624 58.1271V61.5748C13.8624 61.6394 13.8748 61.7008 13.9032 61.7606C13.9299 61.8204 13.9689 61.8722 14.0186 61.919C14.0683 61.9643 14.1269 61.9999 14.1926 62.0241C14.2583 62.0483 14.3257 62.0613 14.3967 62.0613H98.1938C98.2648 62.0613 98.334 62.0483 98.3997 62.0241C98.4636 61.9999 98.5222 61.9643 98.5719 61.919C98.6234 61.8722 98.6607 61.8204 98.6891 61.7606C98.7157 61.7008 98.7299 61.6394 98.7299 61.5748V58.1271C98.7299 58.0625 98.7157 58.0011 98.6891 57.9413C98.6607 57.8815 98.6234 57.8297 98.5719 57.7829C98.5222 57.7376 98.4636 57.7021 98.3997 57.6778C98.334 57.6536 98.2648 57.6406 98.1938 57.6406ZM86.4936 51.9108C86.6498 51.935 86.7972 51.9803 86.9374 52.0482C87.0777 52.1161 87.2019 52.2033 87.3102 52.3084C87.4185 52.4135 87.5055 52.5331 87.5712 52.664C87.6351 52.7949 87.6759 52.9323 87.6919 53.0762C87.6972 53.1537 87.722 53.2265 87.7646 53.2927C87.809 53.359 87.8658 53.414 87.9386 53.456C88.0096 53.4964 88.0877 53.5223 88.1729 53.5287C88.2581 53.5368 88.3416 53.5271 88.4197 53.498C88.9771 53.3041 89.5522 53.2394 90.1434 53.3057C90.5055 53.3558 90.9049 53.6499 90.8606 53.936C90.8392 54.0379 90.8055 54.1381 90.7629 54.2351C90.6564 54.4888 90.5126 54.8363 90.6564 55.2162C90.7416 55.4101 90.8748 55.575 91.054 55.7059C91.2351 55.8368 91.4393 55.9209 91.6683 55.9532C91.8564 55.9871 92.0464 56.0033 92.2399 56.0049C92.3322 56.0049 92.4263 56.0049 92.5203 56.0227C92.728 56.055 92.9233 56.1181 93.1061 56.215C93.289 56.312 93.4452 56.4365 93.5783 56.5868C93.7097 56.7355 93.8091 56.902 93.873 57.0846C93.9369 57.2689 93.9636 57.4548 93.9529 57.6471H88.4108C88.5173 57.4144 88.599 57.1735 88.6522 56.9262C88.7055 56.6789 88.7286 56.4284 88.725 56.1746C88.7197 55.9225 88.6877 55.6736 88.6256 55.4263C88.5635 55.1806 88.4747 54.943 88.3593 54.7135C88.2439 54.484 88.1019 54.2674 87.9368 54.0653C87.7717 53.8617 87.5836 53.6758 87.3759 53.5093C87.1682 53.3412 86.9427 53.1958 86.7013 53.0697C86.4599 52.9452 86.206 52.845 85.9415 52.7674L85.1214 52.5298C85.267 52.3165 85.4622 52.1548 85.709 52.0433C85.9575 51.9318 86.2185 51.8882 86.4936 51.9108ZM67.6626 34.8732L62.9601 10.6639H68.4756L73.178 34.8732H67.6626ZM44.0954 10.6639H61.872L66.5744 34.8732H39.3929L44.0954 10.6639ZM38.9332 35.8478H73.5136C74.2591 37.0035 74.8254 38.227 75.2142 39.5201C75.6012 40.8115 75.7982 42.1272 75.8018 43.4671C75.8018 47.1313 74.1366 50.3931 70.9875 52.8854C70.9342 52.9291 70.8916 52.9792 70.8614 53.0357C70.8295 53.0939 70.8117 53.1553 70.8064 53.22C70.8029 53.283 70.8117 53.3461 70.833 53.4075C70.8561 53.4689 70.8916 53.5239 70.9378 53.5724C70.9839 53.6208 71.039 53.6596 71.1029 53.6887C71.1668 53.7162 71.2342 53.7324 71.3052 53.7372C71.3762 53.7421 71.4437 53.734 71.5112 53.713C71.5786 53.6936 71.639 53.6613 71.6922 53.6192C72.8461 52.7141 73.8331 51.678 74.655 50.5127L85.6256 53.6887C86.0694 53.8148 86.4563 54.0249 86.7883 54.3207C87.1203 54.6165 87.3599 54.964 87.5072 55.3649C87.5516 55.4828 87.5854 55.6025 87.612 55.7237C87.525 55.6008 87.4309 55.4845 87.3262 55.3746C85.9682 53.9376 83.4368 53.8649 83.3303 53.8617C83.2593 53.8601 83.19 53.8698 83.1243 53.8924C83.0587 53.915 83.0001 53.949 82.9486 53.9942C82.8971 54.0379 82.8563 54.0896 82.8279 54.1494C82.7995 54.2076 82.7835 54.269 82.7835 54.3336C82.7817 54.3983 82.7924 54.4613 82.8172 54.5211C82.8439 54.5809 82.8811 54.6343 82.9291 54.6812C82.977 54.728 83.0338 54.7652 83.0995 54.7911C83.1634 54.8185 83.2309 54.8331 83.3019 54.8347C83.3232 54.8347 85.4693 54.9026 86.5132 56.0098C86.7226 56.2377 86.8753 56.4914 86.9729 56.7743C87.0706 57.0555 87.1061 57.3448 87.0777 57.639H63.1874C64.1176 57.4047 65.03 57.1218 65.9229 56.7905C65.9904 56.7662 66.0472 56.7323 66.0987 56.687C66.1501 56.6418 66.1892 56.5884 66.2158 56.5286C66.2442 56.4704 66.2584 56.4074 66.2584 56.3427C66.2584 56.2781 66.246 56.2167 66.2194 56.1569C66.1927 56.0971 66.1537 56.0437 66.104 55.9968C66.0543 55.9516 65.9957 55.916 65.93 55.8902C65.8643 55.8659 65.7969 55.853 65.7259 55.853C65.6549 55.853 65.5856 55.8643 65.5199 55.8885C62.5039 57.007 59.0193 57.6212 55.4458 57.639H46.6925L48.9771 57.2527C49.2026 57.2123 49.4209 57.1557 49.6339 57.083C49.8487 57.0087 50.0529 56.9198 50.2499 56.8131C50.4469 56.708 50.6316 56.5884 50.8055 56.4526C50.9795 56.3185 51.1393 56.1714 51.2866 56.0114C51.4322 55.853 51.5618 55.6833 51.6754 55.5022C51.789 55.3228 51.8866 55.1353 51.9647 54.9398C52.0428 54.7458 52.1032 54.5454 52.1422 54.3417C52.1831 54.1365 52.2044 53.9312 52.2061 53.7227L52.4724 53.7405H55.689C57.0559 53.6499 58.469 53.553 59.8216 53.1279C61.398 52.6317 62.5927 51.7443 63.2104 50.6258C63.9596 49.2519 63.6809 47.5758 62.5483 46.6464C61.5755 45.848 60.2282 45.7187 59.1648 45.7025C58.9802 45.7025 58.7938 45.7025 58.6074 45.6944C57.7252 45.6944 56.8891 45.6799 56.1435 45.4164C55.5808 45.2192 55.0375 44.7699 54.86 44.2656C55.8257 44.07 56.518 43.556 56.518 42.9515C56.518 42.1789 55.3855 41.5518 53.992 41.5518C52.5985 41.5518 51.4659 42.1822 51.4659 42.9515C51.4659 43.5916 52.2381 44.1298 53.2926 44.2979C53.1736 44.5565 53.0032 44.7828 52.7831 44.9768C52.5612 45.1707 52.3073 45.3178 52.0198 45.4164C51.2742 45.6799 50.4398 45.688 49.5558 45.6944C49.3694 45.6944 49.1848 45.6944 48.9984 45.7025C47.9351 45.7235 46.5877 45.8593 45.6167 46.6464C44.5303 47.5386 44.2303 49.1113 44.8676 50.4529L39.3379 51.1107C39.3379 51.1075 39.3379 51.1042 39.3379 51.1026C37.5556 48.9335 36.6521 46.3668 36.6521 43.4704C36.6538 42.1304 36.8491 40.8164 37.2361 39.5233C37.6231 38.2319 38.1876 37.0083 38.9332 35.8526V35.8478ZM33.0076 57.6406C32.8248 57.2123 31.765 54.4759 33.2437 52.2518C34.0923 50.9766 35.7467 50.1813 37.1331 49.711C37.4261 50.2476 37.7598 50.7616 38.1343 51.2546L37.4225 51.3402C37.355 51.3515 37.2911 51.3742 37.2326 51.4065C37.174 51.4404 37.126 51.4825 37.0852 51.5326C37.0444 51.5827 37.016 51.6392 36.9982 51.699C36.9805 51.7605 36.9769 51.8203 36.9858 51.8833C36.9947 51.9447 37.016 52.0029 37.0497 52.0579C37.0834 52.1128 37.126 52.1597 37.1811 52.1985C37.2343 52.2389 37.2929 52.268 37.3586 52.2858C37.4243 52.3052 37.4917 52.3116 37.561 52.3068L47.8712 51.0768C48.5954 50.9976 49.2576 51.1446 49.8594 51.518L47.1416 51.9641C47.0067 51.9884 46.8984 52.0498 46.8167 52.15C46.7351 52.2486 46.6996 52.3617 46.712 52.4862C46.7244 52.609 46.7812 52.7141 46.8806 52.7998C46.9818 52.8838 47.1007 52.9274 47.2374 52.9291C47.2694 52.9323 47.3013 52.9323 47.3333 52.9291L50.7381 52.3714C50.9387 52.6802 51.0629 53.0147 51.1126 53.3703C51.1233 53.4382 51.1286 53.5077 51.1322 53.5756L47.809 53.8633C47.6688 53.8778 47.5516 53.9344 47.4611 54.0314C47.3688 54.13 47.3262 54.2431 47.3333 54.3708C47.3386 54.5001 47.3937 54.6084 47.4948 54.6973C47.596 54.7878 47.7167 54.8331 47.8587 54.8363H47.912L50.9813 54.5632C50.8978 54.783 50.7842 54.9883 50.6422 55.1806C50.4984 55.3729 50.3316 55.5443 50.1381 55.6962C49.9446 55.8481 49.7333 55.9758 49.5043 56.0777C49.2753 56.1779 49.0339 56.2506 48.7836 56.2959L40.845 57.639L33.0076 57.6406ZM45.9132 50.1959C45.3824 49.218 45.567 48.0041 46.3356 47.3705C47.0457 46.7871 48.1445 46.6901 49.025 46.6707H49.5647C50.5073 46.6707 51.4783 46.6561 52.4067 46.328C53.1204 46.0775 53.6778 45.6589 54.0825 45.0689C54.4855 45.6589 55.0446 46.0791 55.7565 46.328C56.6831 46.6561 57.6613 46.6642 58.5968 46.6707H59.14C60.0187 46.6901 61.1193 46.7871 61.8294 47.3705C62.6016 47.9993 62.7826 49.218 62.2501 50.1959C61.5968 51.3919 60.2282 51.9706 59.479 52.2082C58.2666 52.5913 56.9299 52.6818 55.6376 52.769H54.7375C54.8139 52.6543 54.8671 52.5298 54.8973 52.3957C54.9257 52.2631 54.9293 52.1306 54.908 51.9964C54.8849 51.8623 54.8387 51.7346 54.7659 51.6166C54.6949 51.497 54.6026 51.3936 54.4908 51.303C54.2991 51.1705 54.0878 51.0751 53.8571 51.0137C53.8038 50.9976 53.7488 50.9814 53.6973 50.962C53.6511 50.9458 53.6085 50.9248 53.5695 50.8974C53.5695 50.8747 53.5872 50.8424 53.5961 50.8198C53.6192 50.7519 53.6423 50.684 53.66 50.6161C53.7381 50.2524 53.6565 49.9211 53.4133 49.6221C53.1026 49.2374 52.6854 49.0143 52.1653 48.9513C51.6736 48.9012 51.1907 48.9335 50.7132 49.0467C50.5978 48.5699 50.328 48.1819 49.9055 47.8813C49.7227 47.7617 49.5203 47.6744 49.302 47.6211C49.0836 47.5677 48.8599 47.55 48.6345 47.5677C48.409 47.5871 48.1943 47.6405 47.9901 47.7294C47.786 47.8183 47.6049 47.9363 47.4469 48.085C46.9268 48.5973 46.9978 49.5105 47.3155 50.1619L45.9984 50.3203C45.9664 50.2783 45.938 50.2363 45.9132 50.1959ZM48.512 50.094C48.4943 50.0617 48.473 50.0342 48.4481 50.0068C48.141 49.6916 48.0469 48.9287 48.2315 48.7476C48.3718 48.6232 48.5404 48.5537 48.7339 48.5375C48.9292 48.5214 49.1085 48.5634 49.27 48.662C49.6162 48.8947 49.728 49.3764 49.7635 49.7385C49.7724 49.8177 49.799 49.8888 49.8452 49.955C49.8913 50.0213 49.9499 50.073 50.0245 50.1134C50.099 50.1538 50.1789 50.1765 50.2641 50.1813C50.3493 50.1862 50.431 50.1732 50.5109 50.1425C50.9955 49.9453 51.4996 49.871 52.0286 49.9195C52.2381 49.9486 52.4067 50.0391 52.5328 50.1926C52.5949 50.2573 52.618 50.3316 52.6038 50.4157C52.5949 50.4512 52.5843 50.4852 52.5701 50.5207C52.499 50.684 52.4706 50.8537 52.4866 51.0299C52.5328 51.3952 52.8328 51.7007 53.2943 51.8704C53.3636 51.8962 53.4328 51.9172 53.5038 51.9399C53.6085 51.9641 53.7044 52.0029 53.7967 52.0546C53.8517 52.1177 53.8535 52.1823 53.8003 52.247C53.747 52.3116 53.6778 52.3294 53.5961 52.2987C53.321 52.1403 53.0281 52.1031 52.7156 52.1856C52.4493 52.247 52.2044 52.3488 51.9771 52.491C51.8493 52.1613 51.6718 51.8558 51.4446 51.5746C51.4215 51.5423 51.3949 51.5116 51.3647 51.4841C51.0168 51.0784 50.5943 50.7535 50.0955 50.5127C49.5966 50.2702 49.0659 50.1312 48.5014 50.094H48.512ZM17.1411 57.4321C17.1447 57.3562 17.1784 57.2947 17.2406 57.2463C17.4323 57.1153 17.7607 57.0879 18.0909 57.0733C18.5648 57.0426 19.1045 56.9844 19.5252 56.6563C20.0276 56.2635 20.2175 55.6089 20.0453 54.8137C20.0134 54.6682 19.9761 54.5228 19.937 54.3757C19.8394 54.088 19.795 53.7922 19.8057 53.4899C19.8288 53.3121 19.9157 53.1667 20.0666 53.0503C20.1146 53.0083 20.1714 52.9905 20.2388 52.9986C20.4199 53.0632 20.5779 53.1602 20.7092 53.2895C21.0181 53.54 21.4371 53.8827 22.0317 53.7922C22.4968 53.7211 22.7791 53.4123 22.985 53.1877C23.0702 53.0745 23.1767 52.9824 23.3045 52.9097C23.4927 52.8499 23.8904 53.178 24.0199 53.2879C24.5028 53.6871 25.259 54.0007 25.9247 53.6839C26.0507 53.6241 26.1377 53.5352 26.1857 53.414C26.2318 53.2911 26.2283 53.1715 26.1714 53.0535C25.9797 52.6608 25.7845 52.2534 25.7933 51.8639C25.7933 51.5875 25.9673 51.261 26.2265 51.1948C26.4413 51.1414 26.736 51.2416 27.0466 51.3532C27.1478 51.3871 27.2472 51.421 27.3448 51.4501C27.5188 51.5035 28.4525 51.7653 29.0543 51.4421C29.294 51.3208 29.4413 51.1366 29.4964 50.8909C29.6153 50.3575 29.4608 49.8403 29.3029 49.3958L29.2762 49.3198C29.1378 49.0046 29.065 48.6781 29.0597 48.3387C29.0792 48.0898 29.2336 47.8571 29.4165 47.8199C29.6011 47.7843 29.878 47.9233 30.1798 48.0898C30.565 48.2999 31.0017 48.5391 31.5413 48.5149C32.0508 48.4923 32.7698 48.2223 33.3041 47.0634L33.3361 46.9923C33.5384 46.5495 33.7479 46.092 34.1065 45.9611C34.5485 45.8043 35.1574 46.1648 35.6385 46.4993C35.7237 46.5591 35.8195 46.5915 35.9278 46.5996C36.1071 47.3608 36.3574 48.1027 36.6805 48.8252C35.1432 49.3554 33.3094 50.2638 32.3224 51.7492C30.8153 54.0136 31.4987 56.6207 31.8644 57.6423H17.2849C17.2565 57.5614 17.2086 57.4903 17.1411 57.4321ZM97.6577 61.0866H14.9346V58.6153H97.6577V61.0866Z" fill="black"/>
            <path d="M30.0715 54.7814C30.0076 54.8088 29.9526 54.8476 29.9064 54.8961C29.8585 54.9446 29.8248 54.9996 29.8017 55.061C29.7786 55.1224 29.7697 55.1854 29.7751 55.2501C29.7786 55.3131 29.7981 55.3745 29.8283 55.4327C29.8478 55.4667 29.8514 55.5022 29.839 55.5378C29.8248 55.575 29.8017 55.6024 29.7644 55.6202C29.7271 55.638 29.6881 55.6429 29.6472 55.6332C29.6082 55.6218 29.5762 55.6008 29.5549 55.5685C29.4857 55.4618 29.3845 55.3923 29.2549 55.3551C29.1253 55.318 28.9993 55.3261 28.875 55.3762C28.7526 55.4263 28.662 55.5087 28.607 55.6202C28.5502 55.7334 28.5431 55.8481 28.5839 55.9661C28.5786 56.0356 28.5395 56.0841 28.4685 56.1116C28.3123 56.1439 28.1774 56.1067 28.0656 56.0017C27.9076 55.8481 27.8188 55.6655 27.8028 55.4554C27.794 55.3907 27.7727 55.3309 27.7372 55.2743C27.7017 55.2178 27.6573 55.1693 27.6005 55.1305C27.5454 55.0901 27.4833 55.061 27.4141 55.0432C27.3466 55.027 27.2756 55.0222 27.2064 55.0303C27.1354 55.0367 27.0697 55.0577 27.0076 55.0885C26.9454 55.1208 26.8922 55.1628 26.8478 55.2129C26.8052 55.2646 26.7732 55.3212 26.7537 55.3826C26.736 55.4457 26.7306 55.5087 26.7395 55.5734C26.7857 56.0146 26.9827 56.3944 27.3289 56.7096C27.6218 56.965 27.9715 57.0959 28.378 57.0992C28.5378 57.0992 28.6922 57.0749 28.8413 57.0232C29.0987 56.9375 29.3011 56.7904 29.4502 56.5819C29.736 56.6369 30.0094 56.6013 30.2686 56.4769C30.407 56.4058 30.526 56.3152 30.6254 56.2037C30.7248 56.0922 30.7993 55.9677 30.8473 55.832C30.8952 55.6946 30.9147 55.554 30.9041 55.4117C30.8934 55.2679 30.8561 55.1321 30.7887 55.0012C30.7567 54.943 30.7141 54.8929 30.6609 54.8509C30.6076 54.8088 30.5473 54.7781 30.4798 54.7571C30.4123 54.7361 30.3431 54.728 30.2739 54.7312C30.2029 54.7361 30.1354 54.7523 30.0715 54.7814Z" fill="#232323"/>
            <path d="M63.933 39.4667H62.4897L60.9666 43.194H62.4134L63.933 39.4667Z" fill="white" fill-opacity="0.498"/>
            <path d="M67.107 39.4667H64.4051L62.8767 43.194H65.3389C65.5714 43.194 65.7969 43.1536 66.0117 43.0727C66.2283 42.9919 66.4182 42.8755 66.5833 42.7252C66.7484 42.5749 66.8762 42.402 66.9649 42.2064C67.0555 42.0092 67.0999 41.8055 67.0999 41.5938L67.107 39.4667Z" fill="white" fill-opacity="0.498"/>
            <path d="M46.0942 39.4667H44.6475L43.1279 43.194H44.5729L46.0942 39.4667Z" fill="white" fill-opacity="0.498"/>
            <path d="M49.2665 39.4667H46.5647L45.038 43.194H47.4984C47.7327 43.194 47.9564 43.1536 48.173 43.0727C48.3878 42.9919 48.5795 42.8755 48.7446 42.7252C48.9097 42.5749 49.0375 42.402 49.1262 42.2064C49.215 42.0092 49.2594 41.8055 49.2594 41.5938L49.2665 39.4667Z" fill="white" fill-opacity="0.498"/>
            <g filter="url(#filter0_bd_1_3)">
                <path d="M14.1401 80.848C14.1401 80.884 14.1401 80.908 14.1401 80.92H14.9141C15.0821 80.92 15.2261 80.974 15.3461 81.082C15.4661 81.178 15.5261 81.304 15.5261 81.46C15.5261 81.616 15.4661 81.748 15.3461 81.856C15.2261 81.952 15.0821 82 14.9141 82H11.0621C10.8941 82 10.7501 81.952 10.6301 81.856C10.5101 81.748 10.4501 81.616 10.4501 81.46C10.4501 81.304 10.5101 81.178 10.6301 81.082C10.7501 80.974 10.8941 80.92 11.0621 80.92H11.8361V80.848V69.472C11.8361 69.436 11.8361 69.412 11.8361 69.4H11.0621C10.8941 69.4 10.7501 69.352 10.6301 69.256C10.5101 69.148 10.4501 69.016 10.4501 68.86C10.4501 68.704 10.5101 68.578 10.6301 68.482C10.7501 68.374 10.8941 68.32 11.0621 68.32H14.9141C15.0821 68.32 15.2261 68.374 15.3461 68.482C15.4661 68.578 15.5261 68.704 15.5261 68.86C15.5261 69.016 15.4661 69.148 15.3461 69.256C15.2261 69.352 15.0821 69.4 14.9141 69.4H14.1401V69.472V80.848ZM23.7548 79.39C23.8508 79.054 24.0908 78.886 24.4748 78.886H25.4648C25.6208 78.886 25.7408 78.946 25.8248 79.066C25.9208 79.186 25.9688 79.318 25.9688 79.462C25.9688 79.582 25.9448 79.684 25.8968 79.768C25.6808 80.248 25.3508 80.674 24.9068 81.046C24.4628 81.406 23.9588 81.688 23.3948 81.892C22.8308 82.084 22.2608 82.18 21.6848 82.18C20.6408 82.18 19.6928 81.91 18.8408 81.37C17.9888 80.818 17.3108 80.05 16.8068 79.066C16.3148 78.082 16.0688 76.936 16.0688 75.628C16.0688 74.632 16.2068 73.684 16.4828 72.784C16.7708 71.884 17.1668 71.086 17.6708 70.39C18.1748 69.694 18.7508 69.148 19.3988 68.752C20.0588 68.344 20.7548 68.14 21.4868 68.14C21.9788 68.14 22.4828 68.248 22.9988 68.464C23.5148 68.668 24.0008 68.95 24.4568 69.31C24.9248 69.658 25.3268 70.054 25.6628 70.498C26.0108 70.942 26.2508 71.398 26.3828 71.866C26.3948 71.89 26.4008 71.92 26.4008 71.956C26.4008 71.992 26.4008 72.022 26.4008 72.046C26.4008 72.202 26.3528 72.34 26.2568 72.46C26.1608 72.568 26.0288 72.622 25.8608 72.622H24.7448C24.4088 72.622 24.1928 72.43 24.0968 72.046C23.9888 71.602 23.8088 71.164 23.5568 70.732C23.3048 70.3 23.0048 69.94 22.6568 69.652C22.3088 69.364 21.9188 69.22 21.4868 69.22C21.0068 69.22 20.5688 69.412 20.1728 69.796C19.7888 70.168 19.4648 70.672 19.2008 71.308C18.9368 71.932 18.7328 72.622 18.5888 73.378C18.4448 74.122 18.3728 74.872 18.3728 75.628C18.3728 76.408 18.4688 77.134 18.6608 77.806C18.8528 78.466 19.1108 79.042 19.4348 79.534C19.7588 80.026 20.1128 80.41 20.4968 80.686C20.8928 80.962 21.2888 81.1 21.6848 81.1C21.9128 81.1 22.1588 81.052 22.4228 80.956C22.6988 80.848 22.9568 80.674 23.1968 80.434C23.4368 80.182 23.6228 79.834 23.7548 79.39ZM37.75 75.394C37.75 76.762 37.516 77.956 37.048 78.976C36.592 79.984 35.974 80.77 35.194 81.334C34.414 81.898 33.532 82.18 32.548 82.18C31.504 82.18 30.556 81.91 29.704 81.37C28.852 80.818 28.174 80.05 27.67 79.066C27.178 78.082 26.932 76.936 26.932 75.628C26.932 74.632 27.07 73.684 27.346 72.784C27.634 71.884 28.03 71.086 28.534 70.39C29.038 69.694 29.614 69.148 30.262 68.752C30.922 68.344 31.618 68.14 32.35 68.14C33.106 68.14 33.808 68.32 34.456 68.68C35.116 69.028 35.692 69.526 36.184 70.174C36.676 70.822 37.06 71.59 37.336 72.478C37.612 73.366 37.75 74.338 37.75 75.394ZM35.446 75.394C35.446 74.29 35.326 73.288 35.086 72.388C34.858 71.488 34.516 70.774 34.06 70.246C33.604 69.718 33.034 69.454 32.35 69.454C31.882 69.454 31.456 69.634 31.072 69.994C30.688 70.342 30.358 70.816 30.082 71.416C29.818 72.004 29.608 72.664 29.452 73.396C29.308 74.128 29.236 74.872 29.236 75.628C29.236 76.66 29.368 77.578 29.632 78.382C29.896 79.174 30.274 79.798 30.766 80.254C31.27 80.698 31.864 80.92 32.548 80.92C33.148 80.92 33.664 80.68 34.096 80.2C34.528 79.708 34.858 79.042 35.086 78.202C35.326 77.362 35.446 76.426 35.446 75.394ZM46.2548 79.39C46.3508 79.054 46.5908 78.886 46.9748 78.886H47.9648C48.1208 78.886 48.2408 78.946 48.3248 79.066C48.4208 79.186 48.4688 79.318 48.4688 79.462C48.4688 79.582 48.4448 79.684 48.3968 79.768C48.1808 80.248 47.8508 80.674 47.4068 81.046C46.9628 81.406 46.4588 81.688 45.8948 81.892C45.3308 82.084 44.7608 82.18 44.1848 82.18C43.1408 82.18 42.1928 81.91 41.3408 81.37C40.4888 80.818 39.8108 80.05 39.3068 79.066C38.8148 78.082 38.5688 76.936 38.5688 75.628C38.5688 74.632 38.7068 73.684 38.9828 72.784C39.2708 71.884 39.6668 71.086 40.1708 70.39C40.6748 69.694 41.2508 69.148 41.8988 68.752C42.5588 68.344 43.2548 68.14 43.9868 68.14C44.4788 68.14 44.9828 68.248 45.4988 68.464C46.0148 68.668 46.5008 68.95 46.9568 69.31C47.4248 69.658 47.8268 70.054 48.1628 70.498C48.5108 70.942 48.7508 71.398 48.8828 71.866C48.8948 71.89 48.9008 71.92 48.9008 71.956C48.9008 71.992 48.9008 72.022 48.9008 72.046C48.9008 72.202 48.8528 72.34 48.7568 72.46C48.6608 72.568 48.5288 72.622 48.3608 72.622H47.2448C46.9088 72.622 46.6928 72.43 46.5968 72.046C46.4888 71.602 46.3088 71.164 46.0568 70.732C45.8048 70.3 45.5048 69.94 45.1568 69.652C44.8088 69.364 44.4188 69.22 43.9868 69.22C43.5068 69.22 43.0688 69.412 42.6728 69.796C42.2888 70.168 41.9648 70.672 41.7008 71.308C41.4368 71.932 41.2328 72.622 41.0888 73.378C40.9448 74.122 40.8728 74.872 40.8728 75.628C40.8728 76.408 40.9688 77.134 41.1608 77.806C41.3528 78.466 41.6108 79.042 41.9348 79.534C42.2588 80.026 42.6128 80.41 42.9968 80.686C43.3928 80.962 43.7888 81.1 44.1848 81.1C44.4128 81.1 44.6588 81.052 44.9228 80.956C45.1988 80.848 45.4568 80.674 45.6968 80.434C45.9368 80.182 46.1228 79.834 46.2548 79.39ZM52.8647 80.848C52.8647 80.884 52.8647 80.908 52.8647 80.92H53.6387C53.8067 80.92 53.9507 80.974 54.0707 81.082C54.1907 81.178 54.2507 81.304 54.2507 81.46C54.2507 81.616 54.1907 81.748 54.0707 81.856C53.9507 81.952 53.8067 82 53.6387 82H49.7867C49.6187 82 49.4747 81.952 49.3547 81.856C49.2347 81.748 49.1747 81.616 49.1747 81.46C49.1747 81.304 49.2347 81.178 49.3547 81.082C49.4747 80.974 49.6187 80.92 49.7867 80.92H50.5607V80.848V69.472C50.5607 69.436 50.5607 69.412 50.5607 69.4H49.7867C49.6187 69.4 49.4747 69.352 49.3547 69.256C49.2347 69.148 49.1747 69.016 49.1747 68.86C49.1747 68.704 49.2347 68.578 49.3547 68.482C49.4747 68.374 49.6187 68.32 49.7867 68.32H53.6387C53.8067 68.32 53.9507 68.374 54.0707 68.482C54.1907 68.578 54.2507 68.704 54.2507 68.86C54.2507 69.016 54.1907 69.148 54.0707 69.256C53.9507 69.352 53.8067 69.4 53.6387 69.4H52.8647V69.472V80.848ZM63.4383 68.914C63.4383 68.518 63.6363 68.32 64.0323 68.32H64.7883C65.1843 68.32 65.3823 68.518 65.3823 68.914V81.406C65.3823 81.802 65.1843 82 64.7883 82H63.4923C63.1683 82 62.9343 81.856 62.7903 81.568L57.6423 71.326V81.406C57.6423 81.802 57.4443 82 57.0483 82H56.2923C55.8963 82 55.6983 81.802 55.6983 81.406V68.914C55.6983 68.518 55.8963 68.32 56.2923 68.32H57.5883C57.9123 68.32 58.1463 68.464 58.2903 68.752L63.4383 78.994V68.914ZM74.6108 80.92C75.0068 80.92 75.2048 81.1 75.2048 81.46C75.2048 81.82 75.0068 82 74.6108 82H67.5908C67.1948 82 66.9968 81.802 66.9968 81.406V68.914C66.9968 68.518 67.1948 68.32 67.5908 68.32H74.6108C75.0068 68.32 75.2048 68.5 75.2048 68.86C75.2048 69.22 75.0068 69.4 74.6108 69.4H69.3008V74.728H74.1248C74.5208 74.728 74.7188 74.908 74.7188 75.268C74.7188 75.628 74.5208 75.808 74.1248 75.808H69.3008V80.92H74.6108ZM82.5567 79.408C82.4487 79.648 82.3167 79.768 82.1607 79.768C82.0047 79.768 81.8727 79.648 81.7647 79.408L78.5787 72.46V81.406C78.5787 81.802 78.3807 82 77.9847 82H77.1927C76.7967 82 76.5987 81.802 76.5987 81.406V68.914C76.5987 68.518 76.7967 68.32 77.1927 68.32H77.8767C78.2007 68.32 78.4347 68.47 78.5787 68.77L82.1247 76.186L85.6527 68.77C85.7847 68.47 86.0187 68.32 86.3547 68.32H87.0387C87.4347 68.32 87.6327 68.518 87.6327 68.914V81.406C87.6327 81.802 87.4347 82 87.0387 82H86.2467C85.8507 82 85.6527 81.802 85.6527 81.406V72.514L82.5567 79.408ZM98.3947 81.334C98.4187 81.43 98.4307 81.496 98.4307 81.532C98.4307 81.844 98.2507 82 97.8907 82H96.9727C96.6247 82 96.4087 81.826 96.3247 81.478L95.6047 78.49H91.9147L91.1767 81.478C91.0927 81.826 90.8767 82 90.5287 82H89.6107C89.2507 82 89.0707 81.844 89.0707 81.532C89.0707 81.496 89.0827 81.43 89.1067 81.334L92.4907 68.824C92.5747 68.488 92.7967 68.32 93.1567 68.32H94.3447C94.7047 68.32 94.9267 68.488 95.0107 68.824L98.3947 81.334ZM92.1667 77.41H95.3347L93.7507 70.93L92.1667 77.41Z" fill="black"/>
            </g>
        </g>
    </g>
    <defs>
        <filter id="filter0_bd_1_3" x="6.45009" y="64.14" width="95.9806" height="26.04" filterUnits="userSpaceOnUse" color-interpolation-filters="sRGB">
            <feFlood flood-opacity="0" result="BackgroundImageFix"/>
            <feGaussianBlur in="BackgroundImage" stdDeviation="2"/>
            <feComposite in2="SourceAlpha" operator="in" result="effect1_backgroundBlur_1_3"/>
            <feColorMatrix in="SourceAlpha" type="matrix" values="0 0 0 0 0 0 0 0 0 0 0 0 0 0 0 0 0 0 127 0" result="hardAlpha"/>
            <feOffset dy="4"/>
            <feGaussianBlur stdDeviation="2"/>
            <feComposite in2="hardAlpha" operator="out"/>
            <feColorMatrix type="matrix" values="0 0 0 0 0 0 0 0 0 0 0 0 0 0 0 0 0 0 0.25 0"/>
            <feBlend mode="normal" in2="effect1_backgroundBlur_1_3" result="effect2_dropShadow_1_3"/>
            <feBlend mode="normal" in="SourceGraphic" in2="effect2_dropShadow_1_3" result="shape"/>
        </filter>
        <clipPath id="clip0_1_3">
            <rect width="114" height="97" fill="white"/>
        </clipPath>
        <clipPath id="clip1_1_3">
            <rect width="375" height="222" fill="white" transform="translate(-131 -89)"/>
        </clipPath>
    </defs>
</svg>
